<?xml version="1.0" encoding="UTF-8" standalone="no"?>
<!DOCTYPE svg PUBLIC "-//W3C//DTD SVG 1.1//EN"
 "http://www.w3.org/Graphics/SVG/1.1/DTD/svg11.dtd">
<!-- Generated by graphviz version 2.40.1 (20161225.0304)
 -->
<!-- Title: %0 Pages: 1 -->
<svg width="331pt" height="404pt"
 viewBox="0.00 0.00 330.94 404.00" xmlns="http://www.w3.org/2000/svg" xmlns:xlink="http://www.w3.org/1999/xlink">
<g id="graph0" class="graph" transform="scale(1 1) rotate(0) translate(4 400)">
<title>%0</title>
<polygon fill="#ffffff" stroke="transparent" points="-4,4 -4,-400 326.9384,-400 326.9384,4 -4,4"/>
<!-- 0 -->
<g id="node1" class="node">
<title>0</title>
<ellipse fill="none" stroke="#000000" cx="168.4454" cy="-378" rx="108.74" ry="18"/>
<text text-anchor="middle" x="168.4454" y="-373.8" font-family="Times,serif" font-size="14.00" fill="#000000">aws&#45;sqs&#45;recieve&#45;message</text>
</g>
<!-- 2 -->
<g id="node2" class="node">
<title>2</title>
<ellipse fill="none" stroke="#000000" cx="168.4454" cy="-306" rx="28.4127" ry="18"/>
<text text-anchor="middle" x="168.4454" y="-301.8" font-family="Times,serif" font-size="14.00" fill="#000000">jq ...</text>
</g>
<!-- 0&#45;&gt;2 -->
<g id="edge1" class="edge">
<title>0&#45;&gt;2</title>
<path fill="none" stroke="#000000" d="M168.4454,-359.8314C168.4454,-352.131 168.4454,-342.9743 168.4454,-334.4166"/>
<polygon fill="#000000" stroke="#000000" points="171.9455,-334.4132 168.4454,-324.4133 164.9455,-334.4133 171.9455,-334.4132"/>
</g>
<!-- 4 -->
<g id="node3" class="node">
<title>4</title>
<ellipse fill="none" stroke="#000000" cx="168.4454" cy="-234" rx="47.5351" ry="18"/>
<text text-anchor="middle" x="168.4454" y="-229.8" font-family="Times,serif" font-size="14.00" fill="#000000">CMD1 ...</text>
</g>
<!-- 2&#45;&gt;4 -->
<g id="edge2" class="edge">
<title>2&#45;&gt;4</title>
<path fill="none" stroke="#000000" d="M168.4454,-287.8314C168.4454,-280.131 168.4454,-270.9743 168.4454,-262.4166"/>
<polygon fill="#000000" stroke="#000000" points="171.9455,-262.4132 168.4454,-252.4133 164.9455,-262.4133 171.9455,-262.4132"/>
</g>
<!-- 7 -->
<g id="node4" class="node">
<title>7</title>
<ellipse fill="none" stroke="#000000" cx="98.4454" cy="-162" rx="37.7217" ry="18"/>
<text text-anchor="middle" x="98.4454" y="-157.8" font-family="Times,serif" font-size="14.00" fill="#000000">CMD2</text>
</g>
<!-- 4&#45;&gt;7 -->
<g id="edge3" class="edge">
<title>4&#45;&gt;7</title>
<path fill="none" stroke="#000000" d="M151.8564,-216.937C142.8355,-207.6584 131.5336,-196.0336 121.6519,-185.8696"/>
<polygon fill="#000000" stroke="#000000" points="123.9138,-183.1751 114.4335,-178.4449 118.8948,-188.0547 123.9138,-183.1751"/>
</g>
<!-- 12 -->
<g id="node7" class="node">
<title>12</title>
<ellipse fill="none" stroke="#000000" cx="238.4454" cy="-162" rx="84.486" ry="18"/>
<text text-anchor="middle" x="238.4454" y="-157.8" font-family="Times,serif" font-size="14.00" fill="#000000">aws&#45;sqs&#45;send&#45;error</text>
</g>
<!-- 4&#45;&gt;12 -->
<g id="edge6" class="edge">
<title>4&#45;&gt;12</title>
<path fill="none" stroke="#000000" stroke-dasharray="5,2" d="M185.0344,-216.937C193.7331,-207.9898 204.5528,-196.8609 214.1748,-186.964"/>
<polygon fill="#000000" stroke="#000000" points="216.7831,-189.3022 221.2444,-179.6924 211.7641,-184.4226 216.7831,-189.3022"/>
</g>
<!-- 9 -->
<g id="node5" class="node">
<title>9</title>
<ellipse fill="none" stroke="#000000" cx="98.4454" cy="-90" rx="28.4127" ry="18"/>
<text text-anchor="middle" x="98.4454" y="-85.8" font-family="Times,serif" font-size="14.00" fill="#000000">jq ...</text>
</g>
<!-- 7&#45;&gt;9 -->
<g id="edge4" class="edge">
<title>7&#45;&gt;9</title>
<path fill="none" stroke="#000000" d="M98.4454,-143.8314C98.4454,-136.131 98.4454,-126.9743 98.4454,-118.4166"/>
<polygon fill="#000000" stroke="#000000" points="101.9455,-118.4132 98.4454,-108.4133 94.9455,-118.4133 101.9455,-118.4132"/>
</g>
<!-- 11 -->
<g id="node6" class="node">
<title>11</title>
<ellipse fill="none" stroke="#000000" cx="98.4454" cy="-18" rx="98.3908" ry="18"/>
<text text-anchor="middle" x="98.4454" y="-13.8" font-family="Times,serif" font-size="14.00" fill="#000000">aws&#45;sqs&#45;send&#45;message</text>
</g>
<!-- 9&#45;&gt;11 -->
<g id="edge5" class="edge">
<title>9&#45;&gt;11</title>
<path fill="none" stroke="#000000" d="M98.4454,-71.8314C98.4454,-64.131 98.4454,-54.9743 98.4454,-46.4166"/>
<polygon fill="#000000" stroke="#000000" points="101.9455,-46.4132 98.4454,-36.4133 94.9455,-46.4133 101.9455,-46.4132"/>
</g>
</g>
</svg>
