<?xml version="1.0" encoding="UTF-8" standalone="no"?>
<!DOCTYPE svg PUBLIC "-//W3C//DTD SVG 1.1//EN"
 "http://www.w3.org/Graphics/SVG/1.1/DTD/svg11.dtd">
<!-- Generated by graphviz version 2.40.1 (20161225.0304)
 -->
<!-- Title: G Pages: 1 -->
<svg width="547pt" height="155pt"
 viewBox="0.00 0.00 547.02 155.00" xmlns="http://www.w3.org/2000/svg" xmlns:xlink="http://www.w3.org/1999/xlink">
<g id="graph0" class="graph" transform="scale(1 1) rotate(0) translate(4 151)">
<title>G</title>
<polygon fill="#ffffff" stroke="transparent" points="-4,4 -4,-151 543.0187,-151 543.0187,4 -4,4"/>
<g id="clust1" class="cluster">
<title>cluster_buffer</title>
<polygon fill="none" stroke="#d3d3d3" points="38.6,-8 38.6,-139 506.4187,-139 506.4187,-8 38.6,-8"/>
<text text-anchor="middle" x="272.5094" y="-122.4" font-family="Times,serif" font-size="14.00" fill="#000000">buffer</text>
</g>
<!-- buffer_input_1 -->
<g id="node1" class="node">
<title>buffer_input_1</title>
<ellipse fill="none" stroke="#000000" cx="77.4893" cy="-88" rx="30.7789" ry="18"/>
<text text-anchor="middle" x="77.4893" y="-83.8" font-family="Times,serif" font-size="14.00" fill="#000000">input</text>
</g>
<!-- buffer_pending -->
<g id="node3" class="node">
<title>buffer_pending</title>
<ellipse fill="none" stroke="#000000" cx="264.6809" cy="-69" rx="81.1052" ry="18"/>
<text text-anchor="middle" x="264.6809" y="-64.8" font-family="Times,serif" font-size="14.00" fill="#000000">pending(pos, line)</text>
</g>
<!-- buffer_input_1&#45;&gt;buffer_pending -->
<g id="edge1" class="edge">
<title>buffer_input_1&#45;&gt;buffer_pending</title>
<path fill="none" stroke="#000000" d="M107.9814,-84.905C127.7366,-82.8999 154.5123,-80.1821 180.3389,-77.5607"/>
<polygon fill="#000000" stroke="#000000" points="180.9596,-81.0158 190.555,-76.5238 180.2526,-74.0516 180.9596,-81.0158"/>
</g>
<!-- buffer_input_2 -->
<g id="node2" class="node">
<title>buffer_input_2</title>
<ellipse fill="none" stroke="#000000" cx="77.4893" cy="-34" rx="30.7789" ry="18"/>
<text text-anchor="middle" x="77.4893" y="-29.8" font-family="Times,serif" font-size="14.00" fill="#000000">input</text>
</g>
<!-- buffer_input_2&#45;&gt;buffer_pending -->
<g id="edge2" class="edge">
<title>buffer_input_2&#45;&gt;buffer_pending</title>
<path fill="none" stroke="#000000" d="M107.1503,-39.5459C130.0278,-43.8234 162.6673,-49.9261 192.3088,-55.4683"/>
<polygon fill="#000000" stroke="#000000" points="191.7549,-58.9253 202.2278,-57.3229 193.0415,-52.0445 191.7549,-58.9253"/>
</g>
<!-- buffer_output_1 -->
<g id="node4" class="node">
<title>buffer_output_1</title>
<ellipse fill="none" stroke="#000000" cx="462.701" cy="-88" rx="35.9368" ry="18"/>
<text text-anchor="middle" x="462.701" y="-83.8" font-family="Times,serif" font-size="14.00" fill="#000000">output</text>
</g>
<!-- buffer_pending&#45;&gt;buffer_output_1 -->
<g id="edge3" class="edge">
<title>buffer_pending&#45;&gt;buffer_output_1</title>
<path fill="none" stroke="#000000" d="M323.3803,-81.5187C342.3121,-84.9915 363.4507,-88.2798 382.9832,-90 386.0824,-90.2729 386.8724,-90.0428 389.9832,-90 398.6059,-89.8814 407.8021,-89.6838 416.6524,-89.4578"/>
<polygon fill="#000000" stroke="#000000" points="416.9264,-92.9518 426.828,-89.1824 416.7369,-85.9543 416.9264,-92.9518"/>
</g>
<!-- buffer_output_2 -->
<g id="node5" class="node">
<title>buffer_output_2</title>
<ellipse fill="none" stroke="#000000" cx="462.701" cy="-34" rx="35.9368" ry="18"/>
<text text-anchor="middle" x="462.701" y="-29.8" font-family="Times,serif" font-size="14.00" fill="#000000">output</text>
</g>
<!-- buffer_pending&#45;&gt;buffer_output_2 -->
<g id="edge5" class="edge">
<title>buffer_pending&#45;&gt;buffer_output_2</title>
<path fill="none" stroke="#000000" d="M328.4257,-57.7331C357.8703,-52.5288 392.1014,-46.4785 418.6316,-41.7893"/>
<polygon fill="#000000" stroke="#000000" points="419.5222,-45.1862 428.7604,-39.999 418.3038,-38.293 419.5222,-45.1862"/>
</g>
<!-- buffer_output_1&#45;&gt;buffer_pending -->
<g id="edge4" class="edge">
<title>buffer_output_1&#45;&gt;buffer_pending</title>
<path fill="none" stroke="#000000" stroke-dasharray="5,2" d="M432.2518,-78.3073C419.3572,-74.6805 404.0815,-71.0044 389.9832,-69.2 378.8015,-67.7689 367.0124,-66.9089 355.3199,-66.4476"/>
<polygon fill="#000000" stroke="#000000" points="344.9673,-70.1386 345.2074,-62.1422 353.2038,-62.3824 352.9637,-70.3788 344.9673,-70.1386"/>
<polyline fill="none" stroke="#000000" points="353.0837,-66.3806 355.0828,-66.4406 "/>
<text text-anchor="middle" x="386.4832" y="-73.2" font-family="Times,serif" font-size="14.00" fill="#000000">1</text>
</g>
<!-- buffer_output_1_out -->
<g id="node8" class="node">
<title>buffer_output_1_out</title>
<ellipse fill="#000000" stroke="#000000" cx="537.2187" cy="-88" rx="1.8" ry="1.8"/>
</g>
<!-- buffer_output_1&#45;&gt;buffer_output_1_out -->
<g id="edge8" class="edge">
<title>buffer_output_1&#45;&gt;buffer_output_1_out</title>
<path fill="none" stroke="#000000" d="M498.6502,-88C508.2059,-88 517.8766,-88 525.144,-88"/>
<polygon fill="#000000" stroke="#000000" points="525.2924,-91.5001 535.2923,-88 525.2923,-84.5001 525.2924,-91.5001"/>
</g>
<!-- buffer_output_2_out -->
<g id="node9" class="node">
<title>buffer_output_2_out</title>
<ellipse fill="#000000" stroke="#000000" cx="537.2187" cy="-34" rx="1.8" ry="1.8"/>
</g>
<!-- buffer_output_2&#45;&gt;buffer_output_2_out -->
<g id="edge9" class="edge">
<title>buffer_output_2&#45;&gt;buffer_output_2_out</title>
<path fill="none" stroke="#000000" d="M498.6502,-34C508.2059,-34 517.8766,-34 525.144,-34"/>
<polygon fill="#000000" stroke="#000000" points="525.2924,-37.5001 535.2923,-34 525.2923,-30.5001 525.2924,-37.5001"/>
</g>
<!-- buffer_input_1_in -->
<g id="node6" class="node">
<title>buffer_input_1_in</title>
<ellipse fill="#000000" stroke="#000000" cx="1.8" cy="-88" rx="1.8" ry="1.8"/>
</g>
<!-- buffer_input_1_in&#45;&gt;buffer_input_1 -->
<g id="edge6" class="edge">
<title>buffer_input_1_in&#45;&gt;buffer_input_1</title>
<path fill="none" stroke="#000000" stroke-dasharray="5,2" d="M3.671,-88C8.5071,-88 22.0383,-88 36.2165,-88"/>
<polygon fill="#000000" stroke="#000000" points="46.5397,-84 46.5398,-92 38.5398,-92.0001 38.5397,-84.0001 46.5397,-84"/>
<polyline fill="none" stroke="#000000" points="38.5398,-88.0001 36.5398,-88.0001 "/>
<text text-anchor="middle" x="25.1" y="-92.2" font-family="Times,serif" font-size="14.00" fill="#000000">2</text>
</g>
<!-- buffer_input_2_in -->
<g id="node7" class="node">
<title>buffer_input_2_in</title>
<ellipse fill="#000000" stroke="#000000" cx="1.8" cy="-34" rx="1.8" ry="1.8"/>
</g>
<!-- buffer_input_2_in&#45;&gt;buffer_input_2 -->
<g id="edge7" class="edge">
<title>buffer_input_2_in&#45;&gt;buffer_input_2</title>
<path fill="none" stroke="#000000" stroke-dasharray="5,2" d="M3.671,-34C8.5071,-34 22.0383,-34 36.2165,-34"/>
<polygon fill="#000000" stroke="#000000" points="46.5397,-30 46.5398,-38 38.5398,-38.0001 38.5397,-30.0001 46.5397,-30"/>
<polyline fill="none" stroke="#000000" points="38.5398,-34.0001 36.5398,-34.0001 "/>
<text text-anchor="middle" x="25.1" y="-38.2" font-family="Times,serif" font-size="14.00" fill="#000000">2</text>
</g>
</g>
</svg>
