<?xml version="1.0" encoding="UTF-8" standalone="no"?>
<!DOCTYPE svg PUBLIC "-//W3C//DTD SVG 1.1//EN"
 "http://www.w3.org/Graphics/SVG/1.1/DTD/svg11.dtd">
<!-- Generated by graphviz version 2.40.1 (20161225.0304)
 -->
<!-- Title: G Pages: 1 -->
<svg width="160pt" height="706pt"
 viewBox="0.00 0.00 160.00 705.80" xmlns="http://www.w3.org/2000/svg" xmlns:xlink="http://www.w3.org/1999/xlink">
<g id="graph0" class="graph" transform="scale(1 1) rotate(0) translate(4 701.8)">
<title>G</title>
<polygon fill="#ffffff" stroke="transparent" points="-4,4 -4,-701.8 156,-701.8 156,4 -4,4"/>
<g id="clust1" class="cluster">
<title>cluster_sink</title>
<polygon fill="none" stroke="#d3d3d3" points="8,-8 8,-667.2 144,-667.2 144,-8 8,-8"/>
<text text-anchor="middle" x="76" y="-650.6" font-family="Times,serif" font-size="14.00" fill="#000000">sink</text>
</g>
<g id="clust2" class="cluster">
<title>cluster_sink_thread</title>
<polygon fill="none" stroke="#d3d3d3" points="16,-16 16,-279.8 136,-279.8 136,-16 16,-16"/>
<text text-anchor="middle" x="76" y="-263.2" font-family="Times,serif" font-size="14.00" fill="#000000">thread</text>
</g>
<!-- sink_handle -->
<g id="node1" class="node">
<title>sink_handle</title>
<polygon fill="none" stroke="#000000" points="76,-60 23.9732,-42 76,-24 128.0268,-42 76,-60"/>
<polyline fill="none" stroke="#000000" points="35.3137,-45.9235 35.3137,-38.0765 "/>
<polyline fill="none" stroke="#000000" points="64.6595,-27.9235 87.3405,-27.9235 "/>
<polyline fill="none" stroke="#000000" points="116.6863,-38.0765 116.6863,-45.9235 "/>
<polyline fill="none" stroke="#000000" points="87.3405,-56.0765 64.6595,-56.0765 "/>
<text text-anchor="middle" x="76" y="-37.8" font-family="Times,serif" font-size="14.00" fill="#000000">handle</text>
</g>
<!-- sink_int_rx -->
<g id="node2" class="node">
<title>sink_int_rx</title>
<ellipse fill="none" stroke="#000000" cx="76" cy="-229" rx="33.646" ry="18"/>
<text text-anchor="middle" x="76" y="-224.8" font-family="Times,serif" font-size="14.00" fill="#000000">int_tx</text>
</g>
<!-- sink_int_rx&#45;&gt;sink_handle -->
<g id="edge3" class="edge">
<title>sink_int_rx&#45;&gt;sink_handle</title>
<path fill="none" stroke="#000000" d="M76,-210.5C76,-199.7083 76,-185.8333 76,-173.5 76,-173.5 76,-173.5 76,-97.5 76,-88.7318 76,-79.1843 76,-70.5196"/>
<polygon fill="#000000" stroke="#000000" points="79.5001,-70.5 76,-60.5 72.5001,-70.5 79.5001,-70.5"/>
</g>
<!-- sink_int_tx -->
<g id="node3" class="node">
<title>sink_int_tx</title>
<ellipse fill="none" stroke="#000000" cx="76" cy="-362.8" rx="33.646" ry="18"/>
<text text-anchor="middle" x="76" y="-358.6" font-family="Times,serif" font-size="14.00" fill="#000000">int_tx</text>
</g>
<!-- sink_int_tx&#45;&gt;sink_int_rx -->
<g id="edge2" class="edge">
<title>sink_int_tx&#45;&gt;sink_int_rx</title>
<path fill="none" stroke="#000000" d="M76,-344.7551C76,-322.3108 76,-283.7356 76,-257.3324"/>
<polygon fill="#000000" stroke="#000000" points="79.5001,-257.1863 76,-247.1863 72.5001,-257.1863 79.5001,-257.1863"/>
</g>
<!-- sink_pending -->
<g id="node4" class="node">
<title>sink_pending</title>
<ellipse fill="none" stroke="#000000" cx="76" cy="-489.6" rx="42.299" ry="18"/>
<text text-anchor="middle" x="76" y="-485.4" font-family="Times,serif" font-size="14.00" fill="#000000">pending</text>
</g>
<!-- sink_pending&#45;&gt;sink_int_tx -->
<g id="edge1" class="edge">
<title>sink_pending&#45;&gt;sink_int_tx</title>
<path fill="none" stroke="#000000" stroke-dasharray="5,2" d="M76,-471.4327C76,-450.4352 76,-415.6261 76,-391.079"/>
<polygon fill="#000000" stroke="#000000" points="72,-380.9337 80,-380.9336 80.0001,-388.9336 72.0001,-388.9337 72,-380.9337"/>
<polyline fill="none" stroke="#000000" points="76.0001,-388.9336 76.0001,-390.9336 "/>
<text text-anchor="middle" x="79.5" y="-422" font-family="Times,serif" font-size="14.00" fill="#000000">1</text>
</g>
<!-- sink_rx -->
<g id="node5" class="node">
<title>sink_rx</title>
<ellipse fill="none" stroke="#000000" cx="76" cy="-616.4" rx="40.0089" ry="18"/>
<text text-anchor="middle" x="76" y="-612.2" font-family="Times,serif" font-size="14.00" fill="#000000">sink_rx</text>
</g>
<!-- sink_rx&#45;&gt;sink_pending -->
<g id="edge4" class="edge">
<title>sink_rx&#45;&gt;sink_pending</title>
<path fill="none" stroke="#000000" stroke-dasharray="5,2" d="M76,-598.2327C76,-577.2352 76,-542.4261 76,-517.879"/>
<polygon fill="#000000" stroke="#000000" points="72,-507.7337 80,-507.7336 80.0001,-515.7336 72.0001,-515.7337 72,-507.7337"/>
<polyline fill="none" stroke="#000000" points="76.0001,-515.7336 76.0001,-517.7336 "/>
<text text-anchor="middle" x="79.5" y="-548.8" font-family="Times,serif" font-size="14.00" fill="#000000">2</text>
</g>
<!-- sink_tx -->
<g id="node6" class="node">
<title>sink_tx</title>
<ellipse fill="#000000" stroke="#000000" cx="76" cy="-696" rx="1.8" ry="1.8"/>
</g>
<!-- sink_tx&#45;&gt;sink_rx -->
<g id="edge5" class="edge">
<title>sink_tx&#45;&gt;sink_rx</title>
<path fill="none" stroke="#000000" d="M76,-694.0323C76,-687.2047 76,-663.8972 76,-644.5869"/>
<polygon fill="#000000" stroke="#000000" points="79.5001,-644.4003 76,-634.4003 72.5001,-644.4003 79.5001,-644.4003"/>
</g>
</g>
</svg>
