<?xml version="1.0" encoding="UTF-8" standalone="no"?>
<!DOCTYPE svg PUBLIC "-//W3C//DTD SVG 1.1//EN"
 "http://www.w3.org/Graphics/SVG/1.1/DTD/svg11.dtd">
<!-- Generated by graphviz version 2.40.1 (20161225.0304)
 -->
<!-- Title: G Pages: 1 -->
<svg width="478pt" height="188pt"
 viewBox="0.00 0.00 478.00 187.80" xmlns="http://www.w3.org/2000/svg" xmlns:xlink="http://www.w3.org/1999/xlink">
<g id="graph0" class="graph" transform="scale(1 1) rotate(0) translate(4 183.795)">
<title>G</title>
<polygon fill="#ffffff" stroke="transparent" points="-4,4 -4,-183.795 474,-183.795 474,4 -4,4"/>
<g id="clust1" class="cluster">
<title>cluster_1</title>
<polygon fill="none" stroke="#ff0000" points="8,-94.995 8,-171.795 154,-171.795 154,-94.995 8,-94.995"/>
<text text-anchor="middle" x="81" y="-155.195" font-family="Times,serif" font-size="14.00" fill="#000000">player #1</text>
</g>
<g id="clust2" class="cluster">
<title>cluster_2</title>
<polygon fill="none" stroke="#0000ff" points="162,-94.995 162,-171.795 308,-171.795 308,-94.995 162,-94.995"/>
<text text-anchor="middle" x="235" y="-155.195" font-family="Times,serif" font-size="14.00" fill="#000000">player #2</text>
</g>
<g id="clust3" class="cluster">
<title>cluster_3</title>
<polygon fill="none" stroke="#00ff00" points="316,-94.995 316,-171.795 462,-171.795 462,-94.995 316,-94.995"/>
<text text-anchor="middle" x="389" y="-155.195" font-family="Times,serif" font-size="14.00" fill="#000000">player #3</text>
</g>
<!-- p1_wvlinewise -->
<g id="node1" class="node">
<title>p1_wvlinewise</title>
<ellipse fill="none" stroke="#000000" cx="81" cy="-120.995" rx="64.8658" ry="18"/>
<text text-anchor="middle" x="81" y="-116.795" font-family="Times,serif" font-size="14.00" fill="#000000">WV Linewise</text>
</g>
<!-- server -->
<g id="node4" class="node">
<title>server</title>
<polygon fill="none" stroke="#000000" points="249.1954,-50.2929 198.8046,-50.2929 198.8046,.0979 249.1954,.0979 249.1954,-50.2929"/>
<text text-anchor="middle" x="224" y="-20.8975" font-family="Times,serif" font-size="14.00" fill="#000000">server</text>
</g>
<!-- p1_wvlinewise&#45;&gt;server -->
<g id="edge1" class="edge">
<title>p1_wvlinewise&#45;&gt;server</title>
<path fill="none" stroke="#000000" d="M91.2541,-103.1405C98.4662,-91.8798 109.0073,-77.7174 121.3282,-68.195 141.5312,-52.5808 168.2181,-41.6062 189.3202,-34.6401"/>
<polygon fill="#000000" stroke="#000000" points="190.3915,-37.9723 198.8779,-31.6296 188.2884,-31.2957 190.3915,-37.9723"/>
<text text-anchor="middle" x="133.8359" y="-72.395" font-family="Times,serif" font-size="14.00" fill="#000000">SSH</text>
</g>
<!-- p2_wvlinewise -->
<g id="node2" class="node">
<title>p2_wvlinewise</title>
<ellipse fill="none" stroke="#000000" cx="235" cy="-120.995" rx="64.8658" ry="18"/>
<text text-anchor="middle" x="235" y="-116.795" font-family="Times,serif" font-size="14.00" fill="#000000">WV Linewise</text>
</g>
<!-- p2_wvlinewise&#45;&gt;server -->
<g id="edge2" class="edge">
<title>p2_wvlinewise&#45;&gt;server</title>
<path fill="none" stroke="#000000" d="M216.5476,-103.4991C211.9951,-98.0534 207.7364,-91.7032 205.3282,-84.995 202.4184,-76.8897 203.0869,-68.0777 205.4009,-59.7687"/>
<polygon fill="#000000" stroke="#000000" points="208.7087,-60.9129 208.7575,-50.3182 202.1124,-58.57 208.7087,-60.9129"/>
<text text-anchor="middle" x="217.8359" y="-72.395" font-family="Times,serif" font-size="14.00" fill="#000000">SSH</text>
</g>
<!-- p3_wvlinewise -->
<g id="node3" class="node">
<title>p3_wvlinewise</title>
<ellipse fill="none" stroke="#000000" cx="389" cy="-120.995" rx="64.8658" ry="18"/>
<text text-anchor="middle" x="389" y="-116.795" font-family="Times,serif" font-size="14.00" fill="#000000">WV Linewise</text>
</g>
<!-- p3_wvlinewise&#45;&gt;server -->
<g id="edge3" class="edge">
<title>p3_wvlinewise&#45;&gt;server</title>
<path fill="none" stroke="#000000" d="M361.01,-104.7273C332.5965,-88.2135 288.569,-62.6248 258.1273,-44.9322"/>
<polygon fill="#000000" stroke="#000000" points="259.5529,-41.7125 249.1483,-39.7136 256.0354,-47.7646 259.5529,-41.7125"/>
<text text-anchor="middle" x="338.8359" y="-72.395" font-family="Times,serif" font-size="14.00" fill="#000000">SSH</text>
</g>
<!-- server&#45;&gt;p1_wvlinewise -->
<g id="edge4" class="edge">
<title>server&#45;&gt;p1_wvlinewise</title>
<path fill="none" stroke="#000000" stroke-dasharray="5,2" d="M198.7522,-46.4147C184.0799,-58.3699 164.989,-73.2033 147,-84.995 138.8984,-90.3056 129.9469,-95.5628 121.3193,-100.3512"/>
<polygon fill="#000000" stroke="#000000" points="119.6051,-97.2994 112.4949,-105.1541 122.9515,-103.4477 119.6051,-97.2994"/>
</g>
<!-- server&#45;&gt;p2_wvlinewise -->
<g id="edge5" class="edge">
<title>server&#45;&gt;p2_wvlinewise</title>
<path fill="none" stroke="#000000" stroke-dasharray="5,2" d="M228.5069,-50.5704C229.4268,-56.3518 230.32,-62.4743 231,-68.195 231.9507,-76.1926 232.7191,-84.9 233.3187,-92.8948"/>
<polygon fill="#000000" stroke="#000000" points="229.8273,-93.1407 234.0109,-102.8746 236.8105,-92.6564 229.8273,-93.1407"/>
</g>
<!-- server&#45;&gt;p3_wvlinewise -->
<g id="edge6" class="edge">
<title>server&#45;&gt;p3_wvlinewise</title>
<path fill="none" stroke="#000000" stroke-dasharray="5,2" d="M249.2722,-28.1077C277.7801,-32.6061 324.292,-43.388 356,-68.195 364.6841,-74.989 371.6868,-84.7512 376.9695,-94.0377"/>
<polygon fill="#000000" stroke="#000000" points="373.941,-95.7993 381.6773,-103.0381 380.1437,-92.5548 373.941,-95.7993"/>
</g>
</g>
</svg>
