<?xml version="1.0" encoding="UTF-8" standalone="no"?>
<!DOCTYPE svg PUBLIC "-//W3C//DTD SVG 1.1//EN"
 "http://www.w3.org/Graphics/SVG/1.1/DTD/svg11.dtd">
<!-- Generated by graphviz version 2.40.1 (20161225.0304)
 -->
<!-- Title: G Pages: 1 -->
<svg width="160pt" height="710pt"
 viewBox="0.00 0.00 160.00 709.80" xmlns="http://www.w3.org/2000/svg" xmlns:xlink="http://www.w3.org/1999/xlink">
<g id="graph0" class="graph" transform="scale(1 1) rotate(0) translate(4 705.8)">
<title>G</title>
<polygon fill="#ffffff" stroke="transparent" points="-4,4 -4,-705.8 156,-705.8 156,4 -4,4"/>
<g id="clust1" class="cluster">
<title>cluster_tap</title>
<polygon fill="none" stroke="#d3d3d3" points="8,-32.6 8,-693.8 144,-693.8 144,-32.6 8,-32.6"/>
<text text-anchor="middle" x="76" y="-677.2" font-family="Times,serif" font-size="14.00" fill="#000000">tap</text>
</g>
<g id="clust2" class="cluster">
<title>cluster_tap_thread</title>
<polygon fill="none" stroke="#d3d3d3" points="16,-397.2 16,-661 136,-661 136,-397.2 16,-397.2"/>
<text text-anchor="middle" x="76" y="-644.4" font-family="Times,serif" font-size="14.00" fill="#000000">thread</text>
</g>
<!-- tap_handle -->
<g id="node1" class="node">
<title>tap_handle</title>
<polygon fill="none" stroke="#000000" points="76,-628.2 23.9732,-610.2 76,-592.2 128.0268,-610.2 76,-628.2"/>
<polyline fill="none" stroke="#000000" points="35.3137,-614.1235 35.3137,-606.2765 "/>
<polyline fill="none" stroke="#000000" points="64.6595,-596.1235 87.3405,-596.1235 "/>
<polyline fill="none" stroke="#000000" points="116.6863,-606.2765 116.6863,-614.1235 "/>
<polyline fill="none" stroke="#000000" points="87.3405,-624.2765 64.6595,-624.2765 "/>
<text text-anchor="middle" x="76" y="-606" font-family="Times,serif" font-size="14.00" fill="#000000">handle</text>
</g>
<!-- tap_int_tx -->
<g id="node2" class="node">
<title>tap_int_tx</title>
<ellipse fill="none" stroke="#000000" cx="76" cy="-423.2" rx="33.646" ry="18"/>
<text text-anchor="middle" x="76" y="-419" font-family="Times,serif" font-size="14.00" fill="#000000">int_tx</text>
</g>
<!-- tap_handle&#45;&gt;tap_int_tx -->
<g id="edge1" class="edge">
<title>tap_handle&#45;&gt;tap_int_tx</title>
<path fill="none" stroke="#000000" d="M76,-591.7C76,-580.9083 76,-567.0333 76,-554.7 76,-554.7 76,-554.7 76,-478.7 76,-469.9318 76,-460.3843 76,-451.7196"/>
<polygon fill="#000000" stroke="#000000" points="79.5001,-451.7 76,-441.7 72.5001,-451.7 79.5001,-451.7"/>
</g>
<!-- tap_int_rx -->
<g id="node3" class="node">
<title>tap_int_rx</title>
<ellipse fill="none" stroke="#000000" cx="76" cy="-312.2" rx="34.2084" ry="18"/>
<text text-anchor="middle" x="76" y="-308" font-family="Times,serif" font-size="14.00" fill="#000000">int_rx</text>
</g>
<!-- tap_int_tx&#45;&gt;tap_int_rx -->
<g id="edge2" class="edge">
<title>tap_int_tx&#45;&gt;tap_int_rx</title>
<path fill="none" stroke="#000000" d="M76,-404.8706C76,-387.4373 76,-360.9482 76,-340.7489"/>
<polygon fill="#000000" stroke="#000000" points="79.5001,-340.5566 76,-330.5566 72.5001,-340.5567 79.5001,-340.5566"/>
</g>
<!-- tap_pending -->
<g id="node5" class="node">
<title>tap_pending</title>
<ellipse fill="none" stroke="#000000" cx="76" cy="-185.4" rx="42.299" ry="18"/>
<text text-anchor="middle" x="76" y="-181.2" font-family="Times,serif" font-size="14.00" fill="#000000">pending</text>
</g>
<!-- tap_int_rx&#45;&gt;tap_pending -->
<g id="edge3" class="edge">
<title>tap_int_rx&#45;&gt;tap_pending</title>
<path fill="none" stroke="#000000" stroke-dasharray="5,2" d="M76,-294.0327C76,-273.0352 76,-238.2261 76,-213.679"/>
<polygon fill="#000000" stroke="#000000" points="72,-203.5337 80,-203.5336 80.0001,-211.5336 72.0001,-211.5337 72,-203.5337"/>
<polyline fill="none" stroke="#000000" points="76.0001,-211.5336 76.0001,-213.5336 "/>
<text text-anchor="middle" x="79.5" y="-244.6" font-family="Times,serif" font-size="14.00" fill="#000000">2</text>
</g>
<!-- tap_tx -->
<g id="node4" class="node">
<title>tap_tx</title>
<ellipse fill="none" stroke="#000000" cx="78" cy="-58.6" rx="27" ry="18"/>
<text text-anchor="middle" x="78" y="-54.4" font-family="Times,serif" font-size="14.00" fill="#000000">tx</text>
</g>
<!-- tap_tx&#45;&gt;tap_pending -->
<g id="edge4" class="edge">
<title>tap_tx&#45;&gt;tap_pending</title>
<path fill="none" stroke="#000000" stroke-dasharray="5,2" d="M77.714,-76.7336C77.383,-97.7163 76.834,-132.5235 76.4467,-157.0816"/>
<polygon fill="#000000" stroke="#000000" points="80.2861,-167.2958 72.287,-167.1695 72.4133,-159.1705 80.4123,-159.2968 80.2861,-167.2958"/>
<polyline fill="none" stroke="#000000" points="76.4128,-159.2336 76.4444,-157.2339 "/>
<text text-anchor="middle" x="80.5" y="-117.8" font-family="Times,serif" font-size="14.00" fill="#000000">1</text>
</g>
<!-- tap_rx -->
<g id="node6" class="node">
<title>tap_rx</title>
<ellipse fill="#000000" stroke="#000000" cx="78" cy="-1.8" rx="1.8" ry="1.8"/>
</g>
<!-- tap_tx&#45;&gt;tap_rx -->
<g id="edge6" class="edge">
<title>tap_tx&#45;&gt;tap_rx</title>
<path fill="none" stroke="#000000" d="M78,-40.3155C78,-31.6139 78,-21.4551 78,-13.756"/>
<polygon fill="#000000" stroke="#000000" points="81.5001,-13.6036 78,-3.6036 74.5001,-13.6037 81.5001,-13.6036"/>
</g>
<!-- tap_pending&#45;&gt;tap_tx -->
<g id="edge5" class="edge">
<title>tap_pending&#45;&gt;tap_tx</title>
<path fill="none" stroke="#000000" d="M73.5724,-167.1185C72.9265,-161.4506 72.3199,-155.1765 72,-149.4 70.6529,-125.0777 70.6822,-118.8491 73,-94.6 73.2469,-92.0168 73.5435,-89.3345 73.8675,-86.6516"/>
<polygon fill="#000000" stroke="#000000" points="77.3674,-86.8817 75.2053,-76.5098 70.4275,-85.9662 77.3674,-86.8817"/>
</g>
</g>
</svg>
