<?xml version="1.0" encoding="UTF-8" standalone="no"?>
<!DOCTYPE svg PUBLIC "-//W3C//DTD SVG 1.1//EN"
 "http://www.w3.org/Graphics/SVG/1.1/DTD/svg11.dtd">
<!-- Generated by graphviz version 2.40.1 (20161225.0304)
 -->
<!-- Title: G Pages: 1 -->
<svg width="664pt" height="806pt"
 viewBox="0.00 0.00 664.00 806.00" xmlns="http://www.w3.org/2000/svg" xmlns:xlink="http://www.w3.org/1999/xlink">
<g id="graph0" class="graph" transform="scale(1 1) rotate(0) translate(4 802)">
<title>G</title>
<polygon fill="#ffffff" stroke="transparent" points="-4,4 -4,-802 660,-802 660,4 -4,4"/>
<g id="clust1" class="cluster">
<title>cluster_command</title>
<polygon fill="none" stroke="#d3d3d3" points="8,-32.6 8,-767.4 648,-767.4 648,-32.6 8,-32.6"/>
<text text-anchor="middle" x="328" y="-750.8" font-family="Times,serif" font-size="14.00" fill="#000000">command</text>
</g>
<g id="clust2" class="cluster">
<title>cluster_command_stdin_thread</title>
<polygon fill="none" stroke="#d3d3d3" points="16,-286.2 16,-585 166,-585 166,-286.2 16,-286.2"/>
<text text-anchor="middle" x="91" y="-568.4" font-family="Times,serif" font-size="14.00" fill="#000000">thread stdin</text>
</g>
<g id="clust3" class="cluster">
<title>cluster_command_stdout_thread</title>
<polygon fill="none" stroke="#d3d3d3" points="316,-397.2 316,-734.6 476,-734.6 476,-397.2 316,-397.2"/>
<text text-anchor="middle" x="396" y="-718" font-family="Times,serif" font-size="14.00" fill="#000000">thread stdout</text>
</g>
<g id="clust4" class="cluster">
<title>cluster_command_stderr_thread</title>
<polygon fill="none" stroke="#d3d3d3" points="484,-397.2 484,-734.6 640,-734.6 640,-397.2 484,-397.2"/>
<text text-anchor="middle" x="562" y="-718" font-family="Times,serif" font-size="14.00" fill="#000000">thread stderr</text>
</g>
<!-- command_stdin -->
<g id="node1" class="node">
<title>command_stdin</title>
<polygon fill="none" stroke="#000000" points="91,-330.2 48.6659,-312.2 91,-294.2 133.3341,-312.2 91,-330.2"/>
<polyline fill="none" stroke="#000000" points="59.7091,-316.8955 59.7091,-307.5045 "/>
<polyline fill="none" stroke="#000000" points="79.9568,-298.8955 102.0432,-298.8955 "/>
<polyline fill="none" stroke="#000000" points="122.2909,-307.5045 122.2909,-316.8955 "/>
<polyline fill="none" stroke="#000000" points="102.0432,-325.5045 79.9568,-325.5045 "/>
<text text-anchor="middle" x="91" y="-308" font-family="Times,serif" font-size="14.00" fill="#000000">stdin</text>
</g>
<!-- command_inner_stdin_rx -->
<g id="node2" class="node">
<title>command_inner_stdin_rx</title>
<ellipse fill="none" stroke="#000000" cx="91" cy="-534.2" rx="67.2177" ry="18"/>
<text text-anchor="middle" x="91" y="-530" font-family="Times,serif" font-size="14.00" fill="#000000">inner_stdin_rx</text>
</g>
<!-- command_inner_stdin_rx&#45;&gt;command_stdin -->
<g id="edge1" class="edge">
<title>command_inner_stdin_rx&#45;&gt;command_stdin</title>
<path fill="none" stroke="#000000" d="M91,-515.7C91,-504.9083 91,-491.0333 91,-478.7 91,-478.7 91,-478.7 91,-367.7 91,-358.9318 91,-349.3843 91,-340.7196"/>
<polygon fill="#000000" stroke="#000000" points="94.5001,-340.7 91,-330.7 87.5001,-340.7 94.5001,-340.7"/>
</g>
<!-- command_inner_stdin_tx -->
<g id="node3" class="node">
<title>command_inner_stdin_tx</title>
<ellipse fill="none" stroke="#000000" cx="234" cy="-683.8" rx="66.6556" ry="18"/>
<text text-anchor="middle" x="234" y="-679.6" font-family="Times,serif" font-size="14.00" fill="#000000">inner_stdin_tx</text>
</g>
<!-- command_inner_stdin_tx&#45;&gt;command_inner_stdin_rx -->
<g id="edge4" class="edge">
<title>command_inner_stdin_tx&#45;&gt;command_inner_stdin_rx</title>
<path fill="none" stroke="#000000" d="M218.7929,-666.1024C206.0175,-651.391 187.1506,-630.0253 170,-612 152.6674,-593.7835 132.4545,-573.9011 116.8134,-558.7958"/>
<polygon fill="#000000" stroke="#000000" points="119.1676,-556.2039 109.5349,-551.7924 114.3141,-561.2481 119.1676,-556.2039"/>
</g>
<!-- command_pending_stdin -->
<g id="node4" class="node">
<title>command_pending_stdin</title>
<ellipse fill="none" stroke="#000000" cx="242" cy="-534.2" rx="65.5161" ry="18"/>
<text text-anchor="middle" x="242" y="-530" font-family="Times,serif" font-size="14.00" fill="#000000">pending_stdin</text>
</g>
<!-- command_inner_stdin_tx&#45;&gt;command_pending_stdin -->
<g id="edge3" class="edge">
<title>command_inner_stdin_tx&#45;&gt;command_pending_stdin</title>
<path fill="none" stroke="#000000" stroke-dasharray="5,2" d="M232.7501,-665.4769C232.0835,-654.7858 231.3335,-641.0358 231,-628.8 230.7966,-621.3361 230.4761,-619.4483 231,-612 232.1631,-595.4656 234.7002,-577.1 237.045,-562.3664"/>
<polygon fill="#000000" stroke="#000000" points="234.7493,-551.707 242.6426,-553.0091 241.3405,-560.9024 233.4471,-559.6003 234.7493,-551.707"/>
<polyline fill="none" stroke="#000000" points="237.3938,-560.2514 237.0683,-562.2247 "/>
<text text-anchor="middle" x="234.5" y="-616.2" font-family="Times,serif" font-size="14.00" fill="#000000">1</text>
</g>
<!-- command_pending_stdin&#45;&gt;command_inner_stdin_tx -->
<g id="edge2" class="edge">
<title>command_pending_stdin&#45;&gt;command_inner_stdin_tx</title>
<path fill="none" stroke="#000000" d="M241.7419,-552.3502C241.3966,-571.4051 240.6276,-602.2302 239,-628.8 238.4724,-637.413 237.6978,-646.7678 236.915,-655.2783"/>
<polygon fill="#000000" stroke="#000000" points="233.4067,-655.1991 235.9372,-665.4872 240.3748,-655.8665 233.4067,-655.1991"/>
</g>
<!-- command_stdin_rx -->
<g id="node5" class="node">
<title>command_stdin_rx</title>
<ellipse fill="none" stroke="#000000" cx="106" cy="-683.8" rx="42.8771" ry="18"/>
<text text-anchor="middle" x="106" y="-679.6" font-family="Times,serif" font-size="14.00" fill="#000000">stdin_rx</text>
</g>
<!-- command_stdin_rx&#45;&gt;command_pending_stdin -->
<g id="edge5" class="edge">
<title>command_stdin_rx&#45;&gt;command_pending_stdin</title>
<path fill="none" stroke="#000000" stroke-dasharray="5,2" d="M121.3366,-666.9298C145.1862,-640.6951 191.3056,-589.9638 219.1053,-559.3842"/>
<polygon fill="#000000" stroke="#000000" points="223.1303,-549.0102 229.0499,-554.3916 223.6685,-560.3111 217.7489,-554.9297 223.1303,-549.0102"/>
<polyline fill="none" stroke="#000000" points="220.7087,-557.6204 219.3634,-559.1003 "/>
<text text-anchor="middle" x="174.5" y="-616.2" font-family="Times,serif" font-size="14.00" fill="#000000">2</text>
</g>
<!-- command_stdout -->
<g id="node6" class="node">
<title>command_stdout</title>
<polygon fill="none" stroke="#000000" points="396,-701.8 347.0096,-683.8 396,-665.8 444.9904,-683.8 396,-701.8"/>
<polyline fill="none" stroke="#000000" points="358.2734,-687.9385 358.2734,-679.6615 "/>
<polyline fill="none" stroke="#000000" points="384.7362,-669.9385 407.2638,-669.9385 "/>
<polyline fill="none" stroke="#000000" points="433.7266,-679.6615 433.7266,-687.9385 "/>
<polyline fill="none" stroke="#000000" points="407.2638,-697.6615 384.7362,-697.6615 "/>
<text text-anchor="middle" x="396" y="-679.6" font-family="Times,serif" font-size="14.00" fill="#000000">stdout</text>
</g>
<!-- command_inner_stdout_tx -->
<g id="node7" class="node">
<title>command_inner_stdout_tx</title>
<ellipse fill="none" stroke="#000000" cx="396" cy="-423.2" rx="71.8124" ry="18"/>
<text text-anchor="middle" x="396" y="-419" font-family="Times,serif" font-size="14.00" fill="#000000">inner_stdout_tx</text>
</g>
<!-- command_stdout&#45;&gt;command_inner_stdout_tx -->
<g id="edge6" class="edge">
<title>command_stdout&#45;&gt;command_inner_stdout_tx</title>
<path fill="none" stroke="#000000" d="M396,-665.7635C396,-653.0761 396,-635.6997 396,-620.4 396,-620.4 396,-620.4 396,-478.7 396,-469.9318 396,-460.3843 396,-451.7196"/>
<polygon fill="#000000" stroke="#000000" points="399.5001,-451.7 396,-441.7 392.5001,-451.7 399.5001,-451.7"/>
</g>
<!-- command_inner_stdout_rx -->
<g id="node10" class="node">
<title>command_inner_stdout_rx</title>
<ellipse fill="none" stroke="#000000" cx="396" cy="-312.2" rx="72.3748" ry="18"/>
<text text-anchor="middle" x="396" y="-308" font-family="Times,serif" font-size="14.00" fill="#000000">inner_stdout_rx</text>
</g>
<!-- command_inner_stdout_tx&#45;&gt;command_inner_stdout_rx -->
<g id="edge10" class="edge">
<title>command_inner_stdout_tx&#45;&gt;command_inner_stdout_rx</title>
<path fill="none" stroke="#000000" d="M396,-404.8706C396,-387.4373 396,-360.9482 396,-340.7489"/>
<polygon fill="#000000" stroke="#000000" points="399.5001,-340.5566 396,-330.5566 392.5001,-340.5567 399.5001,-340.5566"/>
</g>
<!-- command_stdout_tx -->
<g id="node8" class="node">
<title>command_stdout_tx</title>
<ellipse fill="none" stroke="#000000" cx="418" cy="-58.6" rx="46.9709" ry="18"/>
<text text-anchor="middle" x="418" y="-54.4" font-family="Times,serif" font-size="14.00" fill="#000000">stdout_tx</text>
</g>
<!-- command_pending_stdout -->
<g id="node9" class="node">
<title>command_pending_stdout</title>
<ellipse fill="none" stroke="#000000" cx="396" cy="-185.4" rx="70.6722" ry="18"/>
<text text-anchor="middle" x="396" y="-181.2" font-family="Times,serif" font-size="14.00" fill="#000000">pending_stdout</text>
</g>
<!-- command_stdout_tx&#45;&gt;command_pending_stdout -->
<g id="edge8" class="edge">
<title>command_stdout_tx&#45;&gt;command_pending_stdout</title>
<path fill="none" stroke="#000000" stroke-dasharray="5,2" d="M415.672,-76.6826C414.8658,-82.7059 413.9301,-89.4472 413,-95.6 409.3762,-119.571 408.6312,-125.6031 404,-149.4 403.5077,-151.9295 402.9725,-154.5536 402.42,-157.1799"/>
<polygon fill="#000000" stroke="#000000" points="404.1663,-167.9749 396.349,-166.2752 398.0487,-158.4578 405.8661,-160.1575 404.1663,-167.9749"/>
<polyline fill="none" stroke="#000000" points="401.9574,-159.3077 402.3823,-157.3533 "/>
<text text-anchor="middle" x="413.5" y="-117.8" font-family="Times,serif" font-size="14.00" fill="#000000">1</text>
</g>
<!-- command_stdout_rx -->
<g id="node16" class="node">
<title>command_stdout_rx</title>
<ellipse fill="#000000" stroke="#000000" cx="418" cy="-1.8" rx="1.8" ry="1.8"/>
</g>
<!-- command_stdout_tx&#45;&gt;command_stdout_rx -->
<g id="edge17" class="edge">
<title>command_stdout_tx&#45;&gt;command_stdout_rx</title>
<path fill="none" stroke="#000000" d="M418,-40.3155C418,-31.6139 418,-21.4551 418,-13.756"/>
<polygon fill="#000000" stroke="#000000" points="421.5001,-13.6036 418,-3.6036 414.5001,-13.6037 421.5001,-13.6036"/>
</g>
<!-- command_pending_stdout&#45;&gt;command_stdout_tx -->
<g id="edge7" class="edge">
<title>command_pending_stdout&#45;&gt;command_stdout_tx</title>
<path fill="none" stroke="#000000" d="M397.7231,-167.3191C399.2418,-152.7509 401.7229,-131.7743 405,-113.6 406.5844,-104.813 408.6851,-95.3234 410.7348,-86.7409"/>
<polygon fill="#000000" stroke="#000000" points="414.1826,-87.3767 413.1715,-76.8302 407.3851,-85.7054 414.1826,-87.3767"/>
</g>
<!-- command_inner_stdout_rx&#45;&gt;command_pending_stdout -->
<g id="edge9" class="edge">
<title>command_inner_stdout_rx&#45;&gt;command_pending_stdout</title>
<path fill="none" stroke="#000000" stroke-dasharray="5,2" d="M396,-294.0327C396,-273.0352 396,-238.2261 396,-213.679"/>
<polygon fill="#000000" stroke="#000000" points="392,-203.5337 400,-203.5336 400.0001,-211.5336 392.0001,-211.5337 392,-203.5337"/>
<polyline fill="none" stroke="#000000" points="396.0001,-211.5336 396.0001,-213.5336 "/>
<text text-anchor="middle" x="399.5" y="-244.6" font-family="Times,serif" font-size="14.00" fill="#000000">2</text>
</g>
<!-- command_stderr -->
<g id="node11" class="node">
<title>command_stderr</title>
<polygon fill="none" stroke="#000000" points="562,-701.8 515.103,-683.8 562,-665.8 608.897,-683.8 562,-701.8"/>
<polyline fill="none" stroke="#000000" points="526.3061,-688.1 526.3061,-679.5 "/>
<polyline fill="none" stroke="#000000" points="550.7969,-670.1 573.2031,-670.1 "/>
<polyline fill="none" stroke="#000000" points="597.6939,-679.5 597.6939,-688.1 "/>
<polyline fill="none" stroke="#000000" points="573.2031,-697.5 550.7969,-697.5 "/>
<text text-anchor="middle" x="562" y="-679.6" font-family="Times,serif" font-size="14.00" fill="#000000">stderr</text>
</g>
<!-- command_inner_stderr_tx -->
<g id="node12" class="node">
<title>command_inner_stderr_tx</title>
<ellipse fill="none" stroke="#000000" cx="562" cy="-423.2" rx="70.0635" ry="18"/>
<text text-anchor="middle" x="562" y="-419" font-family="Times,serif" font-size="14.00" fill="#000000">inner_stderr_tx</text>
</g>
<!-- command_stderr&#45;&gt;command_inner_stderr_tx -->
<g id="edge11" class="edge">
<title>command_stderr&#45;&gt;command_inner_stderr_tx</title>
<path fill="none" stroke="#000000" d="M562,-665.7635C562,-653.0761 562,-635.6997 562,-620.4 562,-620.4 562,-620.4 562,-478.7 562,-469.9318 562,-460.3843 562,-451.7196"/>
<polygon fill="#000000" stroke="#000000" points="565.5001,-451.7 562,-441.7 558.5001,-451.7 565.5001,-451.7"/>
</g>
<!-- command_inner_stderr_rx -->
<g id="node15" class="node">
<title>command_inner_stderr_rx</title>
<ellipse fill="none" stroke="#000000" cx="562" cy="-312.2" rx="70.6258" ry="18"/>
<text text-anchor="middle" x="562" y="-308" font-family="Times,serif" font-size="14.00" fill="#000000">inner_stderr_rx</text>
</g>
<!-- command_inner_stderr_tx&#45;&gt;command_inner_stderr_rx -->
<g id="edge15" class="edge">
<title>command_inner_stderr_tx&#45;&gt;command_inner_stderr_rx</title>
<path fill="none" stroke="#000000" d="M562,-404.8706C562,-387.4373 562,-360.9482 562,-340.7489"/>
<polygon fill="#000000" stroke="#000000" points="565.5001,-340.5566 562,-330.5566 558.5001,-340.5567 565.5001,-340.5566"/>
</g>
<!-- command_stderr_tx -->
<g id="node13" class="node">
<title>command_stderr_tx</title>
<ellipse fill="none" stroke="#000000" cx="542" cy="-58.6" rx="45.2227" ry="18"/>
<text text-anchor="middle" x="542" y="-54.4" font-family="Times,serif" font-size="14.00" fill="#000000">stderr_tx</text>
</g>
<!-- command_pending_stderr -->
<g id="node14" class="node">
<title>command_pending_stderr</title>
<ellipse fill="none" stroke="#000000" cx="562" cy="-185.4" rx="68.9235" ry="18"/>
<text text-anchor="middle" x="562" y="-181.2" font-family="Times,serif" font-size="14.00" fill="#000000">pending_stderr</text>
</g>
<!-- command_stderr_tx&#45;&gt;command_pending_stderr -->
<g id="edge13" class="edge">
<title>command_stderr_tx&#45;&gt;command_pending_stderr</title>
<path fill="none" stroke="#000000" stroke-dasharray="5,2" d="M544.8602,-76.7336C548.1698,-97.7163 553.6599,-132.5235 557.5334,-157.0816"/>
<polygon fill="#000000" stroke="#000000" points="563.0856,-166.6094 555.1833,-167.8559 553.9368,-159.9536 561.8392,-158.7071 563.0856,-166.6094"/>
<polyline fill="none" stroke="#000000" points="557.888,-159.3303 557.5764,-157.3548 "/>
<text text-anchor="middle" x="555.5" y="-117.8" font-family="Times,serif" font-size="14.00" fill="#000000">1</text>
</g>
<!-- command_stderr_rx -->
<g id="node17" class="node">
<title>command_stderr_rx</title>
<ellipse fill="#000000" stroke="#000000" cx="542" cy="-1.8" rx="1.8" ry="1.8"/>
</g>
<!-- command_stderr_tx&#45;&gt;command_stderr_rx -->
<g id="edge16" class="edge">
<title>command_stderr_tx&#45;&gt;command_stderr_rx</title>
<path fill="none" stroke="#000000" d="M542,-40.3155C542,-31.6139 542,-21.4551 542,-13.756"/>
<polygon fill="#000000" stroke="#000000" points="545.5001,-13.6036 542,-3.6036 538.5001,-13.6037 545.5001,-13.6036"/>
</g>
<!-- command_pending_stderr&#45;&gt;command_stderr_tx -->
<g id="edge12" class="edge">
<title>command_pending_stderr&#45;&gt;command_stderr_tx</title>
<path fill="none" stroke="#000000" d="M555.6092,-167.3101C552.1457,-156.6967 548.1457,-142.9467 546,-130.4 543.559,-116.1261 542.5088,-100.0468 542.0902,-86.7286"/>
<polygon fill="#000000" stroke="#000000" points="545.5894,-86.6494 541.8755,-76.7269 538.591,-86.7998 545.5894,-86.6494"/>
</g>
<!-- command_inner_stderr_rx&#45;&gt;command_pending_stderr -->
<g id="edge14" class="edge">
<title>command_inner_stderr_rx&#45;&gt;command_pending_stderr</title>
<path fill="none" stroke="#000000" stroke-dasharray="5,2" d="M562,-294.0327C562,-273.0352 562,-238.2261 562,-213.679"/>
<polygon fill="#000000" stroke="#000000" points="558,-203.5337 566,-203.5336 566.0001,-211.5336 558.0001,-211.5337 558,-203.5337"/>
<polyline fill="none" stroke="#000000" points="562.0001,-211.5336 562.0001,-213.5336 "/>
<text text-anchor="middle" x="565.5" y="-244.6" font-family="Times,serif" font-size="14.00" fill="#000000">2</text>
</g>
<!-- command_stdin_tx -->
<g id="node18" class="node">
<title>command_stdin_tx</title>
<ellipse fill="#000000" stroke="#000000" cx="106" cy="-796.2" rx="1.8" ry="1.8"/>
</g>
<!-- command_stdin_tx&#45;&gt;command_stdin_rx -->
<g id="edge18" class="edge">
<title>command_stdin_tx&#45;&gt;command_stdin_rx</title>
<path fill="none" stroke="#000000" d="M106,-794.2491C106,-784.6428 106,-741.6494 106,-712.2252"/>
<polygon fill="#000000" stroke="#000000" points="109.5001,-712.0856 106,-702.0857 102.5001,-712.0857 109.5001,-712.0856"/>
</g>
</g>
</svg>
