<?xml version="1.0" encoding="UTF-8" standalone="no"?>
<!DOCTYPE svg PUBLIC "-//W3C//DTD SVG 1.1//EN"
 "http://www.w3.org/Graphics/SVG/1.1/DTD/svg11.dtd">
<!-- Generated by graphviz version 2.40.1 (20161225.0304)
 -->
<!-- Title: %0 Pages: 1 -->
<svg width="323pt" height="44pt"
 viewBox="0.00 0.00 323.19 44.00" xmlns="http://www.w3.org/2000/svg" xmlns:xlink="http://www.w3.org/1999/xlink">
<g id="graph0" class="graph" transform="scale(1 1) rotate(0) translate(4 40)">
<title>%0</title>
<polygon fill="#ffffff" stroke="transparent" points="-4,4 -4,-40 319.1903,-40 319.1903,4 -4,4"/>
<!-- player_1 -->
<g id="node1" class="node">
<title>player_1</title>
<ellipse fill="none" stroke="#ff0000" cx="42.4081" cy="-18" rx="42.3163" ry="18"/>
<text text-anchor="middle" x="42.4081" y="-13.8" font-family="Times,serif" font-size="14.00" fill="#000000">player 1</text>
</g>
<!-- engine -->
<g id="node3" class="node">
<title>engine</title>
<ellipse fill="none" stroke="#000000" cx="157.5951" cy="-18" rx="36.5594" ry="18"/>
<text text-anchor="middle" x="157.5951" y="-13.8" font-family="Times,serif" font-size="14.00" fill="#000000">engine</text>
</g>
<!-- player_1&#45;&gt;engine -->
<g id="edge1" class="edge">
<title>player_1&#45;&gt;engine</title>
<path fill="none" stroke="#000000" d="M82.0489,-11.5503C91.902,-11.2104 102.534,-11.159 112.6226,-11.3962"/>
<polygon fill="#000000" stroke="#000000" points="112.7699,-14.9032 122.8839,-11.7477 113.0096,-7.9073 112.7699,-14.9032"/>
</g>
<!-- player_2 -->
<g id="node2" class="node">
<title>player_2</title>
<ellipse fill="none" stroke="#0000ff" cx="272.7822" cy="-18" rx="42.3163" ry="18"/>
<text text-anchor="middle" x="272.7822" y="-13.8" font-family="Times,serif" font-size="14.00" fill="#000000">player 2</text>
</g>
<!-- player_2&#45;&gt;engine -->
<g id="edge3" class="edge">
<title>player_2&#45;&gt;engine</title>
<path fill="none" stroke="#000000" d="M232.9876,-24.4549C223.1259,-24.7919 212.4919,-24.8402 202.4084,-24.6001"/>
<polygon fill="#000000" stroke="#000000" points="202.2701,-21.0933 192.1551,-24.2453 202.028,-28.0891 202.2701,-21.0933"/>
</g>
<!-- engine&#45;&gt;player_1 -->
<g id="edge4" class="edge">
<title>engine&#45;&gt;player_1</title>
<path fill="none" stroke="#000000" d="M122.8839,-24.2523C113.2318,-24.6945 102.5558,-24.842 92.2203,-24.6949"/>
<polygon fill="#000000" stroke="#000000" points="92.1304,-21.1918 82.0489,-24.4497 91.9616,-28.1898 92.1304,-21.1918"/>
</g>
<!-- engine&#45;&gt;player_2 -->
<g id="edge2" class="edge">
<title>engine&#45;&gt;player_2</title>
<path fill="none" stroke="#000000" d="M192.1551,-11.7547C201.797,-11.3094 212.4702,-11.1588 222.8098,-11.3028"/>
<polygon fill="#000000" stroke="#000000" points="222.9072,-14.806 232.9876,-11.5451 223.0738,-7.808 222.9072,-14.806"/>
</g>
</g>
</svg>
