<?xml version="1.0" encoding="UTF-8" standalone="no"?>
<!DOCTYPE svg PUBLIC "-//W3C//DTD SVG 1.1//EN"
 "http://www.w3.org/Graphics/SVG/1.1/DTD/svg11.dtd">
<!-- Generated by graphviz version 2.40.1 (20161225.0304)
 -->
<!-- Title: G Pages: 1 -->
<svg width="838pt" height="142pt"
 viewBox="0.00 0.00 838.28 142.00" xmlns="http://www.w3.org/2000/svg" xmlns:xlink="http://www.w3.org/1999/xlink">
<g id="graph0" class="graph" transform="scale(1 1) rotate(0) translate(4 138)">
<title>G</title>
<polygon fill="#ffffff" stroke="transparent" points="-4,4 -4,-138 834.2792,-138 834.2792,4 -4,4"/>
<g id="clust1" class="cluster">
<title>cluster_tap</title>
<polygon fill="none" stroke="#d3d3d3" points="8,-8 8,-126 797.6792,-126 797.6792,-8 8,-8"/>
<text text-anchor="middle" x="402.8396" y="-109.4" font-family="Times,serif" font-size="14.00" fill="#000000">tap</text>
</g>
<g id="clust2" class="cluster">
<title>cluster_tap_thread</title>
<polygon fill="none" stroke="#d3d3d3" points="16,-16 16,-93 354.1726,-93 354.1726,-16 16,-16"/>
<text text-anchor="middle" x="185.0863" y="-76.4" font-family="Times,serif" font-size="14.00" fill="#000000">thread</text>
</g>
<!-- tap_handle -->
<g id="node1" class="node">
<title>tap_handle</title>
<polygon fill="none" stroke="#000000" points="76.0134,-60 23.9866,-42 76.0134,-24 128.0402,-42 76.0134,-60"/>
<polyline fill="none" stroke="#000000" points="35.3271,-45.9235 35.3271,-38.0765 "/>
<polyline fill="none" stroke="#000000" points="64.6729,-27.9235 87.3539,-27.9235 "/>
<polyline fill="none" stroke="#000000" points="116.6997,-38.0765 116.6997,-45.9235 "/>
<polyline fill="none" stroke="#000000" points="87.3539,-56.0765 64.6729,-56.0765 "/>
<text text-anchor="middle" x="76.0134" y="-37.8" font-family="Times,serif" font-size="14.00" fill="#000000">handle</text>
</g>
<!-- tap_int_tx -->
<g id="node2" class="node">
<title>tap_int_tx</title>
<ellipse fill="none" stroke="#000000" cx="312.5997" cy="-42" rx="33.646" ry="18"/>
<text text-anchor="middle" x="312.5997" y="-37.8" font-family="Times,serif" font-size="14.00" fill="#000000">int_tx</text>
</g>
<!-- tap_handle&#45;&gt;tap_int_tx -->
<g id="edge1" class="edge">
<title>tap_handle&#45;&gt;tap_int_tx</title>
<path fill="none" stroke="#000000" d="M128.08,-42C140.3603,-42 153.4052,-42 165.5268,-42 165.5268,-42 165.5268,-42 241.5268,-42 250.4022,-42 259.9011,-42 268.9724,-42"/>
<polygon fill="#000000" stroke="#000000" points="268.9765,-45.5001 278.9765,-42 268.9764,-38.5001 268.9765,-45.5001"/>
</g>
<!-- tap_int_rx -->
<g id="node3" class="node">
<title>tap_int_rx</title>
<ellipse fill="none" stroke="#000000" cx="455.2767" cy="-42" rx="34.2084" ry="18"/>
<text text-anchor="middle" x="455.2767" y="-37.8" font-family="Times,serif" font-size="14.00" fill="#000000">int_rx</text>
</g>
<!-- tap_int_tx&#45;&gt;tap_int_rx -->
<g id="edge2" class="edge">
<title>tap_int_tx&#45;&gt;tap_int_rx</title>
<path fill="none" stroke="#000000" d="M346.4122,-42C365.5868,-42 389.818,-42 410.5492,-42"/>
<polygon fill="#000000" stroke="#000000" points="410.7159,-45.5001 420.7158,-42 410.7158,-38.5001 410.7159,-45.5001"/>
</g>
<!-- tap_pending -->
<g id="node5" class="node">
<title>tap_pending</title>
<ellipse fill="none" stroke="#000000" cx="612.53" cy="-42" rx="42.299" ry="18"/>
<text text-anchor="middle" x="612.53" y="-37.8" font-family="Times,serif" font-size="14.00" fill="#000000">pending</text>
</g>
<!-- tap_int_rx&#45;&gt;tap_pending -->
<g id="edge3" class="edge">
<title>tap_int_rx&#45;&gt;tap_pending</title>
<path fill="none" stroke="#000000" stroke-dasharray="5,2" d="M489.3983,-42C510.0929,-42 536.9207,-42 560.2497,-42"/>
<polygon fill="#000000" stroke="#000000" points="570.3453,-38 570.3454,-46 562.3454,-46.0001 562.3453,-38.0001 570.3453,-38"/>
<polyline fill="none" stroke="#000000" points="562.3454,-42.0001 560.3454,-42.0001 "/>
<text text-anchor="middle" x="529.8807" y="-46.2" font-family="Times,serif" font-size="14.00" fill="#000000">2</text>
</g>
<!-- tap_tx -->
<g id="node4" class="node">
<title>tap_tx</title>
<ellipse fill="none" stroke="#000000" cx="762.6792" cy="-49" rx="27" ry="18"/>
<text text-anchor="middle" x="762.6792" y="-44.8" font-family="Times,serif" font-size="14.00" fill="#000000">tx</text>
</g>
<!-- tap_tx&#45;&gt;tap_pending -->
<g id="edge4" class="edge">
<title>tap_tx&#45;&gt;tap_pending</title>
<path fill="none" stroke="#000000" stroke-dasharray="5,2" d="M735.4244,-47.7294C715.8233,-46.8156 688.7721,-45.5544 665.0382,-44.4479"/>
<polygon fill="#000000" stroke="#000000" points="654.5682,-47.9642 654.9408,-39.9729 662.9321,-40.3455 662.5595,-48.3368 654.5682,-47.9642"/>
<polyline fill="none" stroke="#000000" points="662.7458,-44.3412 664.7437,-44.4343 "/>
<text text-anchor="middle" x="695.1792" y="-49.2" font-family="Times,serif" font-size="14.00" fill="#000000">1</text>
</g>
<!-- tap_rx -->
<g id="node6" class="node">
<title>tap_rx</title>
<ellipse fill="#000000" stroke="#000000" cx="828.4792" cy="-49" rx="1.8" ry="1.8"/>
</g>
<!-- tap_tx&#45;&gt;tap_rx -->
<g id="edge6" class="edge">
<title>tap_tx&#45;&gt;tap_rx</title>
<path fill="none" stroke="#000000" d="M789.8225,-49C799.0268,-49 808.8515,-49 816.293,-49"/>
<polygon fill="#000000" stroke="#000000" points="816.4651,-52.5001 826.465,-49 816.465,-45.5001 816.4651,-52.5001"/>
</g>
<!-- tap_pending&#45;&gt;tap_tx -->
<g id="edge5" class="edge">
<title>tap_pending&#45;&gt;tap_tx</title>
<path fill="none" stroke="#000000" d="M654.5894,-40.0163C673.8643,-39.6159 696.9797,-39.8509 717.6792,-42 720.3875,-42.2812 723.1814,-42.6134 725.9889,-42.9778"/>
<polygon fill="#000000" stroke="#000000" points="725.6957,-46.471 736.0871,-44.4048 726.6752,-39.5399 725.6957,-46.471"/>
</g>
</g>
</svg>
