<?xml version="1.0" encoding="UTF-8" standalone="no"?>
<!DOCTYPE svg PUBLIC "-//W3C//DTD SVG 1.1//EN"
 "http://www.w3.org/Graphics/SVG/1.1/DTD/svg11.dtd">
<!-- Generated by graphviz version 2.40.1 (20161225.0304)
 -->
<!-- Title: %0 Pages: 1 -->
<svg width="599pt" height="44pt"
 viewBox="0.00 0.00 598.95 44.00" xmlns="http://www.w3.org/2000/svg" xmlns:xlink="http://www.w3.org/1999/xlink">
<g id="graph0" class="graph" transform="scale(1 1) rotate(0) translate(4 40)">
<title>%0</title>
<polygon fill="#ffffff" stroke="transparent" points="-4,4 -4,-40 594.9463,-40 594.9463,4 -4,4"/>
<!-- 0 -->
<g id="node1" class="node">
<title>0</title>
<ellipse fill="none" stroke="#000000" cx="274.0086" cy="-18" rx="131.3999" ry="18"/>
<text text-anchor="middle" x="274.0086" y="-13.8" font-family="Times,serif" font-size="14.00" fill="#000000">TEMPERATURE_CHECKER</text>
</g>
<!-- 4 -->
<g id="node3" class="node">
<title>4</title>
<ellipse fill="none" stroke="#000000" cx="516.0774" cy="-18" rx="74.7381" ry="18"/>
<text text-anchor="middle" x="516.0774" y="-13.8" font-family="Times,serif" font-size="14.00" fill="#000000">RESTAURANT</text>
</g>
<!-- 0&#45;&gt;4 -->
<g id="edge1" class="edge">
<title>0&#45;&gt;4</title>
<path fill="none" stroke="#000000" d="M405.3152,-18C414.0071,-18 422.6278,-18 430.9963,-18"/>
<polygon fill="#000000" stroke="#000000" points="431.0669,-21.5001 441.0669,-18 431.0668,-14.5001 431.0669,-21.5001"/>
</g>
<!-- 2 -->
<g id="node2" class="node">
<title>2</title>
<ellipse fill="none" stroke="#000000" cx="53.4044" cy="-18" rx="53.309" ry="18"/>
<text text-anchor="middle" x="53.4044" y="-13.8" font-family="Times,serif" font-size="14.00" fill="#000000">KITCHEN</text>
</g>
<!-- 2&#45;&gt;0 -->
<g id="edge2" class="edge">
<title>2&#45;&gt;0</title>
<path fill="none" stroke="#000000" d="M107.0882,-18C115.0573,-18 123.5674,-18 132.3677,-18"/>
<polygon fill="#000000" stroke="#000000" points="132.4136,-21.5001 142.4136,-18 132.4135,-14.5001 132.4136,-21.5001"/>
</g>
</g>
</svg>
