<?xml version="1.0" encoding="UTF-8" standalone="no"?>
<!DOCTYPE svg PUBLIC "-//W3C//DTD SVG 1.1//EN"
 "http://www.w3.org/Graphics/SVG/1.1/DTD/svg11.dtd">
<!-- Generated by graphviz version 2.40.1 (20161225.0304)
 -->
<!-- Title: G Pages: 1 -->
<svg width="202pt" height="402pt"
 viewBox="0.00 0.00 202.00 401.60" xmlns="http://www.w3.org/2000/svg" xmlns:xlink="http://www.w3.org/1999/xlink">
<g id="graph0" class="graph" transform="scale(1 1) rotate(0) translate(4 397.6)">
<title>G</title>
<polygon fill="#ffffff" stroke="transparent" points="-4,4 -4,-397.6 198,-397.6 198,4 -4,4"/>
<g id="clust1" class="cluster">
<title>cluster_buffer</title>
<polygon fill="none" stroke="#d3d3d3" points="8,-32.6 8,-347.2 186,-347.2 186,-32.6 8,-32.6"/>
<text text-anchor="middle" x="97" y="-330.6" font-family="Times,serif" font-size="14.00" fill="#000000">buffer</text>
</g>
<!-- buffer_input_1 -->
<g id="node1" class="node">
<title>buffer_input_1</title>
<ellipse fill="none" stroke="#000000" cx="57" cy="-296.4" rx="30.7789" ry="18"/>
<text text-anchor="middle" x="57" y="-292.2" font-family="Times,serif" font-size="14.00" fill="#000000">input</text>
</g>
<!-- buffer_pending -->
<g id="node3" class="node">
<title>buffer_pending</title>
<ellipse fill="none" stroke="#000000" cx="97" cy="-185.4" rx="81.1052" ry="18"/>
<text text-anchor="middle" x="97" y="-181.2" font-family="Times,serif" font-size="14.00" fill="#000000">pending(pos, line)</text>
</g>
<!-- buffer_input_1&#45;&gt;buffer_pending -->
<g id="edge1" class="edge">
<title>buffer_input_1&#45;&gt;buffer_pending</title>
<path fill="none" stroke="#000000" d="M63.4267,-278.5659C69.8035,-260.8703 79.6659,-233.5021 87.0542,-212.9995"/>
<polygon fill="#000000" stroke="#000000" points="90.3588,-214.153 90.4564,-203.5586 83.7734,-211.7798 90.3588,-214.153"/>
</g>
<!-- buffer_input_2 -->
<g id="node2" class="node">
<title>buffer_input_2</title>
<ellipse fill="none" stroke="#000000" cx="137" cy="-296.4" rx="30.7789" ry="18"/>
<text text-anchor="middle" x="137" y="-292.2" font-family="Times,serif" font-size="14.00" fill="#000000">input</text>
</g>
<!-- buffer_input_2&#45;&gt;buffer_pending -->
<g id="edge2" class="edge">
<title>buffer_input_2&#45;&gt;buffer_pending</title>
<path fill="none" stroke="#000000" d="M130.5733,-278.5659C124.1965,-260.8703 114.3341,-233.5021 106.9458,-212.9995"/>
<polygon fill="#000000" stroke="#000000" points="110.2266,-211.7798 103.5436,-203.5586 103.6412,-214.153 110.2266,-211.7798"/>
</g>
<!-- buffer_output_1 -->
<g id="node4" class="node">
<title>buffer_output_1</title>
<ellipse fill="none" stroke="#000000" cx="53" cy="-58.6" rx="35.9368" ry="18"/>
<text text-anchor="middle" x="53" y="-54.4" font-family="Times,serif" font-size="14.00" fill="#000000">output</text>
</g>
<!-- buffer_pending&#45;&gt;buffer_output_1 -->
<g id="edge3" class="edge">
<title>buffer_pending&#45;&gt;buffer_output_1</title>
<path fill="none" stroke="#000000" d="M88.35,-167.3236C83.4667,-156.7149 77.4667,-142.9649 73,-130.4 67.9383,-116.1616 63.3328,-99.9723 59.8205,-86.5749"/>
<polygon fill="#000000" stroke="#000000" points="63.1178,-85.3414 57.2503,-76.5197 56.3358,-87.075 63.1178,-85.3414"/>
</g>
<!-- buffer_output_2 -->
<g id="node5" class="node">
<title>buffer_output_2</title>
<ellipse fill="none" stroke="#000000" cx="142" cy="-58.6" rx="35.9368" ry="18"/>
<text text-anchor="middle" x="142" y="-54.4" font-family="Times,serif" font-size="14.00" fill="#000000">output</text>
</g>
<!-- buffer_pending&#45;&gt;buffer_output_2 -->
<g id="edge5" class="edge">
<title>buffer_pending&#45;&gt;buffer_output_2</title>
<path fill="none" stroke="#000000" d="M103.4474,-167.2327C111.0087,-145.9265 123.6169,-110.3996 132.3459,-85.8031"/>
<polygon fill="#000000" stroke="#000000" points="135.6635,-86.9196 135.7096,-76.3248 129.0666,-84.5784 135.6635,-86.9196"/>
</g>
<!-- buffer_output_1&#45;&gt;buffer_pending -->
<g id="edge4" class="edge">
<title>buffer_output_1&#45;&gt;buffer_pending</title>
<path fill="none" stroke="#000000" stroke-dasharray="5,2" d="M60.782,-76.4258C63.2006,-82.1849 65.8058,-88.6256 68,-94.6 75.6661,-115.4737 83.2744,-139.4515 88.7735,-157.5236"/>
<polygon fill="#000000" stroke="#000000" points="95.5051,-166.0019 87.8451,-168.3095 85.5375,-160.6495 93.1975,-158.3419 95.5051,-166.0019"/>
<polyline fill="none" stroke="#000000" points="89.3675,-159.4957 88.7906,-157.5807 "/>
<text text-anchor="middle" x="83.5" y="-117.8" font-family="Times,serif" font-size="14.00" fill="#000000">1</text>
</g>
<!-- buffer_output_1_out -->
<g id="node8" class="node">
<title>buffer_output_1_out</title>
<ellipse fill="#000000" stroke="#000000" cx="53" cy="-1.8" rx="1.8" ry="1.8"/>
</g>
<!-- buffer_output_1&#45;&gt;buffer_output_1_out -->
<g id="edge8" class="edge">
<title>buffer_output_1&#45;&gt;buffer_output_1_out</title>
<path fill="none" stroke="#000000" d="M53,-40.3155C53,-31.6139 53,-21.4551 53,-13.756"/>
<polygon fill="#000000" stroke="#000000" points="56.5001,-13.6036 53,-3.6036 49.5001,-13.6037 56.5001,-13.6036"/>
</g>
<!-- buffer_output_2_out -->
<g id="node9" class="node">
<title>buffer_output_2_out</title>
<ellipse fill="#000000" stroke="#000000" cx="142" cy="-1.8" rx="1.8" ry="1.8"/>
</g>
<!-- buffer_output_2&#45;&gt;buffer_output_2_out -->
<g id="edge9" class="edge">
<title>buffer_output_2&#45;&gt;buffer_output_2_out</title>
<path fill="none" stroke="#000000" d="M142,-40.3155C142,-31.6139 142,-21.4551 142,-13.756"/>
<polygon fill="#000000" stroke="#000000" points="145.5001,-13.6036 142,-3.6036 138.5001,-13.6037 145.5001,-13.6036"/>
</g>
<!-- buffer_input_1_in -->
<g id="node6" class="node">
<title>buffer_input_1_in</title>
<ellipse fill="#000000" stroke="#000000" cx="57" cy="-391.8" rx="1.8" ry="1.8"/>
</g>
<!-- buffer_input_1_in&#45;&gt;buffer_input_1 -->
<g id="edge6" class="edge">
<title>buffer_input_1_in&#45;&gt;buffer_input_1</title>
<path fill="none" stroke="#000000" stroke-dasharray="5,2" d="M57,-389.8074C57,-381.5097 57,-348.997 57,-324.6464"/>
<polygon fill="#000000" stroke="#000000" points="53,-314.4773 61,-314.4772 61.0001,-322.4772 53.0001,-322.4773 53,-314.4773"/>
<polyline fill="none" stroke="#000000" points="57.0001,-322.4772 57.0001,-324.4772 "/>
<text text-anchor="middle" x="60.5" y="-359.4" font-family="Times,serif" font-size="14.00" fill="#000000">2</text>
</g>
<!-- buffer_input_2_in -->
<g id="node7" class="node">
<title>buffer_input_2_in</title>
<ellipse fill="#000000" stroke="#000000" cx="137" cy="-391.8" rx="1.8" ry="1.8"/>
</g>
<!-- buffer_input_2_in&#45;&gt;buffer_input_2 -->
<g id="edge7" class="edge">
<title>buffer_input_2_in&#45;&gt;buffer_input_2</title>
<path fill="none" stroke="#000000" stroke-dasharray="5,2" d="M137,-389.8074C137,-381.5097 137,-348.997 137,-324.6464"/>
<polygon fill="#000000" stroke="#000000" points="133,-314.4773 141,-314.4772 141.0001,-322.4772 133.0001,-322.4773 133,-314.4773"/>
<polyline fill="none" stroke="#000000" points="137.0001,-322.4772 137.0001,-324.4772 "/>
<text text-anchor="middle" x="140.5" y="-359.4" font-family="Times,serif" font-size="14.00" fill="#000000">2</text>
</g>
</g>
</svg>
