<?xml version="1.0" encoding="UTF-8" standalone="no"?>
<!DOCTYPE svg PUBLIC "-//W3C//DTD SVG 1.1//EN"
 "http://www.w3.org/Graphics/SVG/1.1/DTD/svg11.dtd">
<!-- Generated by graphviz version 2.40.1 (20161225.0304)
 -->
<!-- Title: %0 Pages: 1 -->
<svg width="729pt" height="404pt"
 viewBox="0.00 0.00 729.15 404.00" xmlns="http://www.w3.org/2000/svg" xmlns:xlink="http://www.w3.org/1999/xlink">
<g id="graph0" class="graph" transform="scale(1 1) rotate(0) translate(4 400)">
<title>%0</title>
<polygon fill="#ffffff" stroke="transparent" points="-4,4 -4,-400 725.1472,-400 725.1472,4 -4,4"/>
<!-- 0 -->
<g id="node1" class="node">
<title>0</title>
<ellipse fill="none" stroke="#000000" cx="349.7456" cy="-306" rx="53.309" ry="18"/>
<text text-anchor="middle" x="349.7456" y="-301.8" font-family="Times,serif" font-size="14.00" fill="#000000">KITCHEN</text>
</g>
<!-- 4 -->
<g id="node3" class="node">
<title>4</title>
<ellipse fill="none" stroke="#000000" cx="349.7456" cy="-234" rx="169.6457" ry="18"/>
<text text-anchor="middle" x="349.7456" y="-229.8" font-family="Times,serif" font-size="14.00" fill="#000000">TEMPERATURE_CHECKER_MATHS</text>
</g>
<!-- 0&#45;&gt;4 -->
<g id="edge1" class="edge">
<title>0&#45;&gt;4</title>
<path fill="none" stroke="#000000" d="M349.7456,-287.8314C349.7456,-280.131 349.7456,-270.9743 349.7456,-262.4166"/>
<polygon fill="#000000" stroke="#000000" points="353.2457,-262.4132 349.7456,-252.4133 346.2457,-262.4133 353.2457,-262.4132"/>
</g>
<!-- 2 -->
<g id="node2" class="node">
<title>2</title>
<ellipse fill="none" stroke="#000000" cx="349.7456" cy="-378" rx="74.7168" ry="18"/>
<text text-anchor="middle" x="349.7456" y="-373.8" font-family="Times,serif" font-size="14.00" fill="#000000">INGREDIENTS</text>
</g>
<!-- 2&#45;&gt;0 -->
<g id="edge11" class="edge">
<title>2&#45;&gt;0</title>
<path fill="none" stroke="#000000" d="M349.7456,-359.8314C349.7456,-352.131 349.7456,-342.9743 349.7456,-334.4166"/>
<polygon fill="#000000" stroke="#000000" points="353.2457,-334.4132 349.7456,-324.4133 346.2457,-334.4133 353.2457,-334.4132"/>
</g>
<!-- 11 -->
<g id="node6" class="node">
<title>11</title>
<ellipse fill="none" stroke="#000000" cx="349.7456" cy="-162" rx="149.9419" ry="18"/>
<text text-anchor="middle" x="349.7456" y="-157.8" font-family="Times,serif" font-size="14.00" fill="#000000">TEMPERATURE_CHECKER_QA</text>
</g>
<!-- 4&#45;&gt;11 -->
<g id="edge3" class="edge">
<title>4&#45;&gt;11</title>
<path fill="none" stroke="#000000" d="M349.7456,-215.8314C349.7456,-208.131 349.7456,-198.9743 349.7456,-190.4166"/>
<polygon fill="#000000" stroke="#000000" points="353.2457,-190.4132 349.7456,-180.4133 346.2457,-190.4133 353.2457,-190.4132"/>
</g>
<!-- 7 -->
<g id="node4" class="node">
<title>7</title>
<ellipse fill="none" stroke="#000000" cx="102.7456" cy="-18" rx="102.9918" ry="18"/>
<text text-anchor="middle" x="102.7456" y="-13.8" font-family="Times,serif" font-size="14.00" fill="#000000">LEAVING_TO_COOL</text>
</g>
<!-- 7&#45;&gt;4 -->
<g id="edge2" class="edge">
<title>7&#45;&gt;4</title>
<path fill="none" stroke="#000000" d="M87.275,-36.0123C73.1741,-54.7481 56.4194,-84.5634 69.7456,-108 104.4478,-169.0304 177.5536,-200.6138 240.3631,-216.8959"/>
<polygon fill="#000000" stroke="#000000" points="239.7986,-220.362 250.3478,-219.3798 241.4885,-213.5691 239.7986,-220.362"/>
</g>
<!-- 9 -->
<g id="node5" class="node">
<title>9</title>
<ellipse fill="none" stroke="#000000" cx="608.7456" cy="-18" rx="112.3033" ry="18"/>
<text text-anchor="middle" x="608.7456" y="-13.8" font-family="Times,serif" font-size="14.00" fill="#000000">ADDING_MORE_HEAT</text>
</g>
<!-- 9&#45;&gt;4 -->
<g id="edge6" class="edge">
<title>9&#45;&gt;4</title>
<path fill="none" stroke="#000000" d="M625.0889,-36.0721C639.9914,-54.8566 657.7189,-84.7112 643.7456,-108 606.5148,-170.0513 531.0094,-201.5787 465.8417,-217.5791"/>
<polygon fill="#000000" stroke="#000000" points="464.8249,-214.2228 455.8939,-219.9226 466.43,-221.0363 464.8249,-214.2228"/>
</g>
<!-- 14 -->
<g id="node7" class="node">
<title>14</title>
<ellipse fill="none" stroke="#000000" cx="349.7456" cy="-90" rx="67.2139" ry="18"/>
<text text-anchor="middle" x="349.7456" y="-85.8" font-family="Times,serif" font-size="14.00" fill="#000000">JUST_RIGHT</text>
</g>
<!-- 11&#45;&gt;14 -->
<g id="edge9" class="edge">
<title>11&#45;&gt;14</title>
<path fill="none" stroke="#000000" d="M349.7456,-143.8314C349.7456,-136.131 349.7456,-126.9743 349.7456,-118.4166"/>
<polygon fill="#000000" stroke="#000000" points="353.2457,-118.4132 349.7456,-108.4133 346.2457,-118.4133 353.2457,-118.4132"/>
</g>
<!-- 17 -->
<g id="node8" class="node">
<title>17</title>
<ellipse fill="none" stroke="#000000" cx="171.7456" cy="-90" rx="93.1987" ry="18"/>
<text text-anchor="middle" x="171.7456" y="-85.8" font-family="Times,serif" font-size="14.00" fill="#000000">TOO_HOT_FILTER</text>
</g>
<!-- 11&#45;&gt;17 -->
<g id="edge10" class="edge">
<title>11&#45;&gt;17</title>
<path fill="none" stroke="#000000" d="M306.6568,-144.5708C280.9986,-134.1922 248.3299,-120.9779 221.5666,-110.1523"/>
<polygon fill="#000000" stroke="#000000" points="222.5804,-106.7869 211.9976,-106.2817 219.9555,-113.2762 222.5804,-106.7869"/>
</g>
<!-- 19 -->
<g id="node9" class="node">
<title>19</title>
<ellipse fill="none" stroke="#000000" cx="534.7456" cy="-90" rx="99.579" ry="18"/>
<text text-anchor="middle" x="534.7456" y="-85.8" font-family="Times,serif" font-size="14.00" fill="#000000">TOO_COLD_FILTER</text>
</g>
<!-- 11&#45;&gt;19 -->
<g id="edge5" class="edge">
<title>11&#45;&gt;19</title>
<path fill="none" stroke="#000000" d="M394.0577,-144.7542C420.8318,-134.334 455.0788,-121.0055 483.0798,-110.1078"/>
<polygon fill="#000000" stroke="#000000" points="484.6515,-113.2519 492.7012,-106.3632 482.1126,-106.7285 484.6515,-113.2519"/>
</g>
<!-- 25 -->
<g id="node10" class="node">
<title>25</title>
<ellipse fill="none" stroke="#000000" cx="349.7456" cy="-18" rx="74.7381" ry="18"/>
<text text-anchor="middle" x="349.7456" y="-13.8" font-family="Times,serif" font-size="14.00" fill="#000000">RESTAURANT</text>
</g>
<!-- 14&#45;&gt;25 -->
<g id="edge7" class="edge">
<title>14&#45;&gt;25</title>
<path fill="none" stroke="#000000" d="M349.7456,-71.8314C349.7456,-64.131 349.7456,-54.9743 349.7456,-46.4166"/>
<polygon fill="#000000" stroke="#000000" points="353.2457,-46.4132 349.7456,-36.4133 346.2457,-46.4133 353.2457,-46.4132"/>
</g>
<!-- 17&#45;&gt;7 -->
<g id="edge4" class="edge">
<title>17&#45;&gt;7</title>
<path fill="none" stroke="#000000" d="M154.6894,-72.2022C146.3131,-63.4617 136.0751,-52.7786 126.9094,-43.2144"/>
<polygon fill="#000000" stroke="#000000" points="129.2908,-40.6408 119.8447,-35.8425 124.2368,-45.4841 129.2908,-40.6408"/>
</g>
<!-- 19&#45;&gt;9 -->
<g id="edge8" class="edge">
<title>19&#45;&gt;9</title>
<path fill="none" stroke="#000000" d="M553.0378,-72.2022C562.11,-63.3752 573.2186,-52.5669 583.1224,-42.9307"/>
<polygon fill="#000000" stroke="#000000" points="585.6809,-45.3247 590.4074,-35.8425 580.7994,-40.3076 585.6809,-45.3247"/>
</g>
</g>
</svg>
