<?xml version="1.0" encoding="UTF-8" standalone="no"?>
<!DOCTYPE svg PUBLIC "-//W3C//DTD SVG 1.1//EN"
 "http://www.w3.org/Graphics/SVG/1.1/DTD/svg11.dtd">
<!-- Generated by graphviz version 2.40.1 (20161225.0304)
 -->
<!-- Title: G Pages: 1 -->
<svg width="863pt" height="142pt"
 viewBox="0.00 0.00 863.23 142.00" xmlns="http://www.w3.org/2000/svg" xmlns:xlink="http://www.w3.org/1999/xlink">
<g id="graph0" class="graph" transform="scale(1 1) rotate(0) translate(4 138)">
<title>G</title>
<polygon fill="#ffffff" stroke="transparent" points="-4,4 -4,-138 859.2259,-138 859.2259,4 -4,4"/>
<g id="clust1" class="cluster">
<title>cluster_sink</title>
<polygon fill="none" stroke="#d3d3d3" points="32.6,-8 32.6,-126 847.2259,-126 847.2259,-8 32.6,-8"/>
<text text-anchor="middle" x="439.9129" y="-109.4" font-family="Times,serif" font-size="14.00" fill="#000000">sink</text>
</g>
<g id="clust2" class="cluster">
<title>cluster_sink_thread</title>
<polygon fill="none" stroke="#d3d3d3" points="501.0532,-16 501.0532,-93 839.2259,-93 839.2259,-16 501.0532,-16"/>
<text text-anchor="middle" x="670.1395" y="-76.4" font-family="Times,serif" font-size="14.00" fill="#000000">thread</text>
</g>
<!-- sink_handle -->
<g id="node1" class="node">
<title>sink_handle</title>
<polygon fill="none" stroke="#000000" points="779.2125,-60 727.1857,-42 779.2125,-24 831.2393,-42 779.2125,-60"/>
<polyline fill="none" stroke="#000000" points="738.5261,-45.9235 738.5261,-38.0765 "/>
<polyline fill="none" stroke="#000000" points="767.872,-27.9235 790.5529,-27.9235 "/>
<polyline fill="none" stroke="#000000" points="819.8988,-38.0765 819.8988,-45.9235 "/>
<polyline fill="none" stroke="#000000" points="790.5529,-56.0765 767.872,-56.0765 "/>
<text text-anchor="middle" x="779.2125" y="-37.8" font-family="Times,serif" font-size="14.00" fill="#000000">handle</text>
</g>
<!-- sink_int_rx -->
<g id="node2" class="node">
<title>sink_int_rx</title>
<ellipse fill="none" stroke="#000000" cx="542.6262" cy="-42" rx="33.646" ry="18"/>
<text text-anchor="middle" x="542.6262" y="-37.8" font-family="Times,serif" font-size="14.00" fill="#000000">int_tx</text>
</g>
<!-- sink_int_rx&#45;&gt;sink_handle -->
<g id="edge3" class="edge">
<title>sink_int_rx&#45;&gt;sink_handle</title>
<path fill="none" stroke="#000000" d="M576.2494,-42C588.0868,-42 601.4834,-42 613.6991,-42 613.6991,-42 613.6991,-42 689.6991,-42 698.5062,-42 707.8007,-42 716.9352,-42"/>
<polygon fill="#000000" stroke="#000000" points="717.1459,-45.5001 727.1459,-42 717.1459,-38.5001 717.1459,-45.5001"/>
</g>
<!-- sink_int_tx -->
<g id="node3" class="node">
<title>sink_int_tx</title>
<ellipse fill="none" stroke="#000000" cx="400.4803" cy="-42" rx="33.646" ry="18"/>
<text text-anchor="middle" x="400.4803" y="-37.8" font-family="Times,serif" font-size="14.00" fill="#000000">int_tx</text>
</g>
<!-- sink_int_tx&#45;&gt;sink_int_rx -->
<g id="edge2" class="edge">
<title>sink_int_tx&#45;&gt;sink_int_rx</title>
<path fill="none" stroke="#000000" d="M434.1669,-42C453.4107,-42 477.7664,-42 498.5202,-42"/>
<polygon fill="#000000" stroke="#000000" points="498.6888,-45.5001 508.6888,-42 498.6887,-38.5001 498.6888,-45.5001"/>
</g>
<!-- sink_pending -->
<g id="node4" class="node">
<title>sink_pending</title>
<ellipse fill="none" stroke="#000000" cx="243.7581" cy="-42" rx="42.299" ry="18"/>
<text text-anchor="middle" x="243.7581" y="-37.8" font-family="Times,serif" font-size="14.00" fill="#000000">pending</text>
</g>
<!-- sink_pending&#45;&gt;sink_int_tx -->
<g id="edge1" class="edge">
<title>sink_pending&#45;&gt;sink_int_tx</title>
<path fill="none" stroke="#000000" stroke-dasharray="5,2" d="M286.1694,-42C308.0035,-42 334.5917,-42 356.6293,-42"/>
<polygon fill="#000000" stroke="#000000" points="366.7203,-38 366.7204,-46 358.7204,-46.0001 358.7203,-38.0001 366.7203,-38"/>
<polyline fill="none" stroke="#000000" points="358.7203,-42.0001 356.7203,-42.0001 "/>
<text text-anchor="middle" x="326.4074" y="-46.2" font-family="Times,serif" font-size="14.00" fill="#000000">1</text>
</g>
<!-- sink_rx -->
<g id="node5" class="node">
<title>sink_rx</title>
<ellipse fill="none" stroke="#000000" cx="80.6044" cy="-42" rx="40.0089" ry="18"/>
<text text-anchor="middle" x="80.6044" y="-37.8" font-family="Times,serif" font-size="14.00" fill="#000000">sink_rx</text>
</g>
<!-- sink_rx&#45;&gt;sink_pending -->
<g id="edge4" class="edge">
<title>sink_rx&#45;&gt;sink_pending</title>
<path fill="none" stroke="#000000" stroke-dasharray="5,2" d="M120.9346,-42C142.1289,-42 168.3641,-42 191.1389,-42"/>
<polygon fill="#000000" stroke="#000000" points="201.3289,-38 201.329,-46 193.329,-46.0001 193.3289,-38.0001 201.3289,-38"/>
<polyline fill="none" stroke="#000000" points="193.329,-42.0001 191.329,-42.0001 "/>
<text text-anchor="middle" x="161.1089" y="-46.2" font-family="Times,serif" font-size="14.00" fill="#000000">2</text>
</g>
<!-- sink_tx -->
<g id="node6" class="node">
<title>sink_tx</title>
<ellipse fill="#000000" stroke="#000000" cx="1.8" cy="-42" rx="1.8" ry="1.8"/>
</g>
<!-- sink_tx&#45;&gt;sink_rx -->
<g id="edge5" class="edge">
<title>sink_tx&#45;&gt;sink_rx</title>
<path fill="none" stroke="#000000" d="M3.748,-42C7.9328,-42 18.3712,-42 30.2524,-42"/>
<polygon fill="#000000" stroke="#000000" points="30.4664,-45.5001 40.4664,-42 30.4663,-38.5001 30.4664,-45.5001"/>
</g>
</g>
</svg>
